<?xml version="1.0"?>
<svg xmlns="http://www.w3.org/2000/svg" id="Capa_1" enable-background="new 0 0 512 512" height="512px" viewBox="0 0 512 512" width="512px"><g><g><g><path d="m69.12 307.488c4.142 0 7.5-3.357 7.5-7.5v-11.56c0-4.143-3.358-7.5-7.5-7.5s-7.5 3.357-7.5 7.5v11.56c0 4.143 3.358 7.5 7.5 7.5z" data-original="#000000" class="active-path" data-old_color="#000000" fill="#0B488A"/><path d="m72.441 265.356c1.09.555 2.251.817 3.396.817 2.732 0 5.366-1.499 6.69-4.101 1.532-3.009 3.356-5.895 5.424-8.577 2.529-3.28 1.919-7.99-1.361-10.52-3.28-2.526-7.99-1.918-10.519 1.361-2.634 3.418-4.96 7.096-6.913 10.933-1.878 3.693-.408 8.209 3.283 10.087z" data-original="#000000" class="active-path" data-old_color="#000000" fill="#0B488A"/><path d="m105.976 237.543c1.021 0 2.058-.21 3.05-.652 3.088-1.377 6.318-2.468 9.6-3.242 4.032-.952 6.528-4.991 5.577-9.022s-4.991-6.528-9.022-5.577c-4.194.99-8.321 2.384-12.264 4.143-3.783 1.687-5.482 6.121-3.795 9.904 1.244 2.789 3.983 4.446 6.854 4.446z" data-original="#000000" class="active-path" data-old_color="#000000" fill="#0B488A"/><path d="m145.458 234.051c3.26.876 6.458 2.065 9.503 3.535 1.051.508 2.161.748 3.255.748 2.788 0 5.466-1.562 6.76-4.242 1.8-3.729.236-8.214-3.494-10.014-3.888-1.877-7.969-3.396-12.132-4.514-3.997-1.071-8.114 1.298-9.189 5.297-1.075 4.001 1.297 8.116 5.297 9.19z" data-original="#000000" class="active-path" data-old_color="#000000" fill="#0B488A"/><path d="m180.69 263.557c1.279 2.714 3.976 4.305 6.789 4.305 1.071 0 2.16-.23 3.192-.718.436-.205.839-.45 1.215-.723.48.096.976.148 1.484.148 4.142 0 7.5-3.357 7.5-7.5v-11.752c0-4.143-3.358-7.5-7.5-7.5-3.198 0-5.922 2.006-7 4.825-2.57-2.12-6.336-2.338-9.161-.292-3.355 2.428-4.107 7.117-1.678 10.473 1.983 2.74 3.719 5.679 5.159 8.734z" data-original="#000000" class="active-path" data-old_color="#000000" fill="#0B488A"/><path d="m196.42 223.688c1.066.525 2.196.774 3.309.774 2.767 0 5.428-1.537 6.734-4.188 1.517-3.078 3.338-6.033 5.414-8.781 2.497-3.306 1.841-8.009-1.465-10.506-3.305-2.495-8.008-1.84-10.505 1.465-2.645 3.502-4.966 7.269-6.9 11.193-1.831 3.716-.303 8.212 3.413 10.043z" data-original="#000000" class="active-path" data-old_color="#000000" fill="#0B488A"/><path d="m230.138 195.155c1.024 0 2.065-.211 3.061-.657 3.135-1.403 6.419-2.513 9.761-3.297 4.033-.945 6.535-4.981 5.589-9.015-.946-4.032-4.982-6.533-9.014-5.589-4.269 1.001-8.463 2.418-12.467 4.211-3.78 1.692-5.473 6.13-3.78 9.91 1.248 2.786 3.984 4.437 6.85 4.437z" data-original="#000000" class="active-path" data-old_color="#000000" fill="#0B488A"/><path d="m270.224 191.765c3.307.924 6.543 2.17 9.619 3.704 1.075.537 2.217.791 3.342.791 2.754 0 5.404-1.522 6.717-4.154 1.85-3.706.344-8.21-3.363-10.059-3.926-1.959-8.057-3.55-12.279-4.729-3.991-1.115-8.127 1.217-9.241 5.206s1.215 8.126 5.205 9.241z" data-original="#000000" class="active-path" data-old_color="#000000" fill="#0B488A"/><path d="m312.353 226.805c1.013 0 2.041-.206 3.026-.642.502-.222.965-.495 1.392-.806.148.021.294.047.444.06.212.018.422.025.631.025 3.859 0 7.14-2.962 7.466-6.878.292-3.515.927-7.006 1.886-10.376 1.134-3.984-1.178-8.133-5.161-9.267-3.985-1.135-8.133 1.177-9.267 5.161-.05.174-.088.353-.136.527-2.398-3.24-6.948-4.02-10.287-1.707-3.406 2.356-4.257 7.028-1.899 10.435 1.959 2.832 3.655 5.858 5.041 8.995 1.238 2.805 3.984 4.473 6.864 4.473z" data-original="#000000" class="active-path" data-old_color="#000000" fill="#0B488A"/><path d="m341.433 184.229c2.513-2.472 5.272-4.708 8.204-6.648 3.454-2.285 4.4-6.938 2.114-10.394-2.285-3.453-6.938-4.402-10.394-2.114-3.732 2.471-7.247 5.318-10.444 8.465-2.953 2.904-2.991 7.653-.086 10.605 1.468 1.492 3.406 2.24 5.346 2.24 1.899 0 3.8-.717 5.26-2.154z" data-original="#000000" class="active-path" data-old_color="#000000" fill="#0B488A"/><path d="m376.027 168.669c1.222-.082 2.459-.124 3.682-.124h.036c2.29 0 4.595.143 6.851.425.315.039.629.059.939.059 3.728 0 6.958-2.776 7.433-6.571.513-4.11-2.402-7.858-6.513-8.372-2.87-.358-5.801-.54-8.705-.54-1.555.019-3.158.053-4.729.157-4.133.278-7.258 3.854-6.98 7.986s3.856 7.23 7.986 6.98z" data-original="#000000" class="active-path" data-old_color="#000000" fill="#0B488A"/><path d="m418.373 184.542c.642.641 1.27 1.3 1.865 1.958 1.48 1.637 3.518 2.468 5.562 2.468 1.795 0 3.596-.641 5.03-1.939 3.071-2.779 3.308-7.521.528-10.593-.762-.843-1.562-1.684-2.379-2.501-2.356-2.355-4.901-4.561-7.565-6.553-3.317-2.48-8.018-1.803-10.498 1.514-2.481 3.317-1.804 8.018 1.514 10.498 2.093 1.565 4.092 3.296 5.943 5.148z" data-original="#000000" class="active-path" data-old_color="#000000" fill="#0B488A"/><path d="m504.5 263.5c4.143 0 7.5-3.357 7.5-7.5v-40.41c0-4.143-3.357-7.5-7.5-7.5h-55.13v-200.59c0-4.143-3.357-7.5-7.5-7.5h-141.42c-2.702 0-5.195 1.453-6.526 3.805-1.331 2.351-1.295 5.236.095 7.554l27.985 46.651-27.985 46.651c-1.39 2.317-1.426 5.203-.095 7.554 1.331 2.352 3.824 3.805 6.526 3.805h42.92c4.143 0 7.5-3.357 7.5-7.5s-3.357-7.5-7.5-7.5h-29.675l23.486-39.151c1.425-2.375 1.425-5.342 0-7.717l-23.486-39.152h120.675v86.02h-56c-4.143 0-7.5 3.357-7.5 7.5s3.357 7.5 7.5 7.5h56v92.07h-54.12c-4.143 0-7.5 3.357-7.5 7.5v32.91h-47.781c-.695-3.424-3.721-6-7.349-6s-6.655 2.576-7.349 6h-54.271c-4.142 0-7.5 3.357-7.5 7.5v32.906h-47.781c-.695-3.424-3.721-6-7.349-6s-6.654 2.576-7.349 6h-54.271c-4.142 0-7.5 3.357-7.5 7.5v32.903h-47.781c-.696-3.422-3.722-5.997-7.349-5.997s-6.653 2.575-7.349 5.997h-54.271c-4.142 0-7.5 3.357-7.5 7.5v100.4c0 4.143 3.358 7.5 7.5 7.5s7.5-3.357 7.5-7.5v-92.9h109.25v152.691h-109.25v-24.79c0-4.143-3.358-7.5-7.5-7.5s-7.5 3.357-7.5 7.5v32.29c0 4.143 3.358 7.5 7.5 7.5h497c4.143 0 7.5-3.357 7.5-7.5v-213.5c0-4.143-3.357-7.5-7.5-7.5s-7.5 3.357-7.5 7.5v206h-109.25v-241-32.91h109.25v32.91c0 4.143 3.357 7.5 7.5 7.5zm-365.25 73.31v-32.903h109.25v193.093h-109.25zm124.25-40.404v-32.906h109.25v233.5h-109.25z" data-original="#000000" class="active-path" data-old_color="#000000" fill="#0B488A"/></g></g></g> </svg>
