<?xml version="1.0"?>
<svg xmlns="http://www.w3.org/2000/svg" xmlns:xlink="http://www.w3.org/1999/xlink" version="1.1" id="Capa_1" x="0px" y="0px" viewBox="0 0 512 512" style="enable-background:new 0 0 512 512;" xml:space="preserve" width="512px" height="512px" class=""><g><g>
	<g>
		<path d="M483.994,372.026c4.143,0,7.5-3.358,7.5-7.5V261.647c0-8.362-6.803-15.166-15.166-15.166h-41.006    c-8.48,0-15.379,6.899-15.379,15.381v47.249h-41.169c-5.959,0-11.128,3.414-13.68,8.383l-12.389-4.798    c-3.863-1.497-8.207,0.423-9.704,4.285s0.423,8.208,4.285,9.703l16.106,6.237v38.818h-41.172c-8.479,0-15.379,6.899-15.379,15.381    v47.249h-41.168c-4.614,0-8.751,2.053-11.572,5.281l-9.942-58.734l8.045-12.109c4.725,3.356,9.019,7.352,16.286,5.531    c3.994-0.999,7.339-3.685,9.179-7.37l28.121-56.356l6.494,2.515c3.867,1.499,8.208-0.422,9.704-4.285    c1.495-3.862-0.423-8.207-4.285-9.703l-47.89-18.546v-26.019c16.895-12.934,28.544-32.371,31.189-54.542    c20.07-0.892,35.032-16.948,35.032-36.06c0-8.851-3.252-17.294-9.033-23.81v-32.907C327.001,48.115,278.887,0,219.747,0    c-59.142,0-107.256,48.115-107.256,107.255v33.761c-5.845,6.462-9.028,14.466-9.028,22.957c0,19.084,14.924,35.166,35.026,36.059    c2.635,22.31,14.41,42.557,32.956,55.8v24.762c-0.089,0.035-105.418,40.867-105.506,40.904    c-1.855,0.762-45.434,19.264-45.434,70.198v103.186c0,9.368,7.62,16.988,16.988,16.988c275.66,0,127.754,0.127,446.5,0.127    c4.143,0,7.5-3.358,7.5-7.5V399.527c0-4.142-3.357-7.5-7.5-7.5s-7.5,3.358-7.5,7.5v97.471h-41.549c0-2.274,0-232.107,0-235.137    c0-0.21,0.17-0.38,0.378-0.38h41.006c0.091,0,0.165,0.074,0.165,0.165v102.879C476.493,368.668,479.852,372.026,483.994,372.026z     M291.74,305.172l-27.01,54.131c-0.554-0.394-15.88-11.28-33.241-23.609l33.211-40.995L291.74,305.172z M239.97,360.119    l-7.721,11.622h-23.18l-7.72-11.621l19.311-13.716L239.97,360.119z M186.447,283.004v-18.711    c10.185,4.371,22.131,6.902,34.362,6.902c11.847,0,23.488-2.61,34.003-7.515v19.395l-34.153,42.159L186.447,283.004z     M321.033,163.973c0,10.616-7.932,19.83-19.438,20.973v-41.94C312.782,144.077,321.033,153.107,321.033,163.973z M137.902,184.946    c-11.519-1.141-19.438-10.365-19.438-20.973c0-10.631,9.23-18.952,19.438-20.627V184.946z M138.147,128.19    c-3.609,0.33-7.6,1.333-10.655,2.522v-23.456c0-50.869,41.386-92.255,92.255-92.255c50.869,0,92.254,41.385,92.254,92.255v22.798    c-3.307-1.176-6.796-1.888-10.405-2.102v-2.009c0.002-6.939-1.011-6.642-27.229-34.825c-4.823-5.184-12.538-5.986-18.284-2.229    c-31.21,20.388-68.812,30.114-102.827,27.673C146.116,116.02,139.503,120.949,138.147,128.19z M152.903,190.41    c0-6.285,0-52.326,0-58.838c37.694,2.525,78.091-8.53,110.886-29.802c13.481,14.485,20.841,22.116,22.806,24.648    c0,77.464,0.016,61.452-0.042,65.637c-0.885,35.721-30.256,64.138-65.744,64.138C180.392,256.195,152.903,224.911,152.903,190.41z     M176.573,294.718l33.219,41.003c-10.813,7.679-27.584,19.592-33.205,23.584l-27.01-54.131L176.573,294.718z M104.922,496.871    v-89.192c0-4.142-3.357-7.5-7.5-7.5s-7.5,3.358-7.5,7.5v89.192H37.495c-1.096,0-1.987-0.891-1.987-1.987V391.698    c0-40.338,34.068-55.445,36.089-56.304l63.93-24.784l28.122,56.36c1.839,3.685,5.184,6.371,9.179,7.37    c7.143,1.789,11.219-1.932,16.285-5.53l8.045,12.109L177.53,496.871H104.922z M192.744,496.871l18.64-110.131h18.549    l18.641,110.131H192.744z M306.843,496.999h-41.549l0.001-47.248c0-0.21,0.17-0.38,0.38-0.38h41.168V496.999z M363.393,496.999    h-41.549c0-16.352,0-93.783,0-109.878c0-0.21,0.17-0.38,0.378-0.38h41.172V496.999z M419.943,496.999h-41.55    c0-8.169,0-164.158,0-169.216v-3.291c0-0.21,0.17-0.38,0.38-0.38h41.169V496.999z" data-original="#000000" class="active-path" data-old_color="#000000" fill="#0C4D93"/>
	</g>
</g></g> </svg>
