<?xml version="1.0"?>
<svg xmlns="http://www.w3.org/2000/svg" height="512px" viewBox="0 0 448 448" width="512px" class="hovered-paths"><g><path d="m128 416c0 4.417969-3.582031 8-8 8s-8-3.582031-8-8 3.582031-8 8-8 8 3.582031 8 8zm0 0" data-original="#000000" class="hovered-path active-path" data-old_color="#000000" fill="#E89300"/><path d="m240 224h-144v-128h144v-72c0-13.253906-10.746094-24-24-24h-16v8c0 13.253906-10.746094 24-24 24h-112c-13.253906 0-24-10.746094-24-24v-8h-16c-13.253906 0-24 10.746094-24 24v400c0 13.253906 10.746094 24 24 24h192c13.253906 0 24-10.746094 24-24zm-120 216c-13.253906 0-24-10.746094-24-24s10.746094-24 24-24 24 10.746094 24 24-10.746094 24-24 24zm104-56h-208v-16h208zm0 0" data-original="#000000" class="hovered-path active-path" data-old_color="#000000" fill="#E89300"/><path d="m64 16h112c4.417969 0 8-3.582031 8-8v-8h-128v8c0 4.417969 3.582031 8 8 8zm0 0" data-original="#000000" class="hovered-path active-path" data-old_color="#000000" fill="#E89300"/><path d="m448 112h-336v96h336zm-256.289062 57.070312-8 13.859376-15.710938-9.074219v18.144531h-16v-18.144531l-15.710938 9.074219-8-13.859376 15.710938-9.070312-15.710938-9.070312 8-13.859376 15.710938 9.074219v-18.144531h16v18.144531l15.710938-9.074219 8 13.859376-15.710938 9.070312zm80 0-8 13.859376-15.710938-9.074219v18.144531h-16v-18.144531l-15.710938 9.074219-8-13.859376 15.710938-9.070312-15.710938-9.070312 8-13.859376 15.710938 9.074219v-18.144531h16v18.144531l15.710938-9.074219 8 13.859376-15.710938 9.070312zm80 0-8 13.859376-15.710938-9.074219v18.144531h-16v-18.144531l-15.710938 9.074219-8-13.859376 15.710938-9.070312-15.710938-9.070312 8-13.859376 15.710938 9.074219v-18.144531h16v18.144531l15.710938-9.074219 8 13.859376-15.710938 9.070312zm80 0-8 13.859376-15.710938-9.074219v18.144531h-16v-18.144531l-15.710938 9.074219-8-13.859376 15.710938-9.070312-15.710938-9.070312 8-13.859376 15.710938 9.074219v-18.144531h16v18.144531l15.710938-9.074219 8 13.859376-15.710938 9.070312zm0 0" data-original="#000000" class="hovered-path active-path" data-old_color="#000000" fill="#E89300"/></g> </svg>
