<svg height="512" viewBox="0 0 64 64" width="512" xmlns="http://www.w3.org/2000/svg"><g id="conference-social-distance-video-online"><path d="m61 11v48a2.006 2.006 0 0 1 -2 2h-54a2.006 2.006 0 0 1 -2-2v-48z" fill="#57a4ff"/><path d="m61 5v6h-58v-6a2.006 2.006 0 0 1 2-2h54a2.006 2.006 0 0 1 2 2z" fill="#c6c5ca"/><path d="m61 11v48a2.006 2.006 0 0 1 -2 2h-5a2.006 2.006 0 0 0 2-2v-48z" fill="#006df0"/><path d="m61 5v6h-5v-6a2.006 2.006 0 0 0 -2-2h5a2.006 2.006 0 0 1 2 2z" fill="#898890"/><path d="m15 21h34a4 4 0 0 1 4 4v28a0 0 0 0 1 0 0h-42a0 0 0 0 1 0 0v-28a4 4 0 0 1 4-4z" fill="#00d7df"/><path d="m47 45v6h-12v2h-6v-8a4 4 0 0 1 4-4l2 6h6l2-6a4 4 0 0 1 4 4z" fill="#57a4ff"/><path d="m43 30v3a4 4 0 0 1 -3.03 3.88 3.906 3.906 0 0 1 -.97.12h-2a3.906 3.906 0 0 1 -.97-.12 4 4 0 0 1 -3.03-3.88v-3h3l3-1 1 1z" fill="#ffdaaa"/><path d="m43 29v1h-3l-1-1-3 1h-3v-1a4 4 0 0 1 4-4h2a4 4 0 0 1 4 4z" fill="#ffde55"/><path d="m43 41-2 6h-6l-2-6h3 4z" fill="#c0ab91"/><path d="m29 19v12a2.006 2.006 0 0 1 -2 2h-3v4l-4-4h-11a2.006 2.006 0 0 1 -2-2v-12a2.006 2.006 0 0 1 2-2h18a2.006 2.006 0 0 1 2 2z" fill="#ffde55"/><path d="m29 19v12a2.006 2.006 0 0 1 -2 2h-3v4l-4-4h3a2.006 2.006 0 0 0 2-2v-12a2.006 2.006 0 0 0 -2-2h4a2.006 2.006 0 0 1 2 2z" fill="#ffcd00"/><path d="m47 45v6h-4v-6a4 4 0 0 0 -4-4h4a4 4 0 0 1 4 4z" fill="#006df0"/><path d="m43 31v2a4 4 0 0 1 -3.03 3.88 3.906 3.906 0 0 1 -.97.12h-2a3.906 3.906 0 0 0 .97-.12 4 4 0 0 0 3.03-3.88v-2z" fill="#ffc477"/><path d="m43 29v2h-2v-2a4 4 0 0 0 -4-4h2a4 4 0 0 1 4 4z" fill="#ffcd00"/><path d="m43 41-2 6h-2l2-6z" fill="#a78966"/><path d="m40 37v4h-4v-4l.03-.12a3.906 3.906 0 0 0 .97.12h2a3.906 3.906 0 0 0 .97-.12z" fill="#ffc477"/><path d="m57 54a3 3 0 0 1 -3 3h-44a3 3 0 0 1 0-6h19v2h6v-2h19a3 3 0 0 1 3 3z" fill="#c6c5ca"/><path d="m57 54a3 3 0 0 1 -3 3h-4a3 3 0 0 0 0-6h4a3 3 0 0 1 3 3z" fill="#898890"/><path d="m59 2h-54a3.009 3.009 0 0 0 -3 3v54a3.009 3.009 0 0 0 3 3h54a3.009 3.009 0 0 0 3-3v-54a3.009 3.009 0 0 0 -3-3zm1 57a1 1 0 0 1 -1 1h-54a1 1 0 0 1 -1-1v-47h56zm0-49h-56v-5a1 1 0 0 1 1-1h54a1 1 0 0 1 1 1z"/><path d="m48 6h2v2h-2z"/><path d="m52 6h2v2h-2z"/><path d="m56 6h2v2h-2z"/><path d="m54 50v-27a3.009 3.009 0 0 0 -3-3h-21v-1a3.009 3.009 0 0 0 -3-3h-18a3.009 3.009 0 0 0 -3 3v12a3.009 3.009 0 0 0 3 3h1v16a4 4 0 0 0 0 8h44a4 4 0 0 0 0-8zm-24-19v-9h21a1 1 0 0 1 1 1v27h-4v-5a5 5 0 0 0 -5-5h-2v-2.42a5.014 5.014 0 0 0 3-4.58v-4a5 5 0 0 0 -5-5h-2a5 5 0 0 0 -5 5v4a5.014 5.014 0 0 0 3 4.58v2.42h-2a5 5 0 0 0 -5 5v5h-16v-16h7.59l3.7 3.71a1.007 1.007 0 0 0 .71.29.838.838 0 0 0 .38-.08.987.987 0 0 0 .62-.92v-3h2a3.009 3.009 0 0 0 3-3zm6 0a1.185 1.185 0 0 0 .32-.05l2.41-.81.56.57a1.033 1.033 0 0 0 .71.29h2v2a3.009 3.009 0 0 1 -3 3h-2a3.009 3.009 0 0 1 -3-3v-2zm-2-2a3.009 3.009 0 0 1 3-3h2a3.009 3.009 0 0 1 3 3h-1.59l-.7-.71a1.028 1.028 0 0 0 -1.03-.24l-2.84.95zm3 9h2v2h-2zm4.61 4-1.33 4h-4.56l-1.33-4zm-6.61 6h6a1.014 1.014 0 0 0 .95-.68l1.74-5.23a2.992 2.992 0 0 1 2.31 2.91v5h-11a1 1 0 0 0 -1 1v1h-4v-7a2.992 2.992 0 0 1 2.31-2.91l1.74 5.23a1.014 1.014 0 0 0 .95.68zm-26-16a1 1 0 0 1 -1-1v-12a1 1 0 0 1 1-1h18a1 1 0 0 1 1 1v12a1 1 0 0 1 -1 1h-3a1 1 0 0 0 -1 1v1.59l-2.29-2.3a1.033 1.033 0 0 0 -.71-.29zm45 24h-44a2 2 0 0 1 0-4h18v1a1 1 0 0 0 1 1h6a1 1 0 0 0 1-1v-1h18a2 2 0 0 1 0 4z"/><path d="m10 20h2v2h-2z"/><path d="m14 20h12v2h-12z"/><path d="m10 24h16v2h-16z"/><path d="m10 28h16v2h-16z"/></g></svg>