<svg height="512" viewBox="0 0 64 64" width="512" xmlns="http://www.w3.org/2000/svg"><g id="Data_Analysis-grow-worldwide-analysis-graph" data-name="Data Analysis-grow-worldwide-analysis-graph"><g fill="#bdfdff"><circle cx="32" cy="32" r="19"/><circle cx="32" cy="32" r="19"/><path d="m51 32a18.96 18.96 0 0 1 -21 18.89 19 19 0 0 0 0-37.78 18.96 18.96 0 0 1 21 18.89z"/></g><path d="m51 32a18.96 18.96 0 0 1 -21 18.89 19 19 0 0 0 0-37.78 18.96 18.96 0 0 1 21 18.89z" fill="#46f8ff"/><path d="m61 47h-10v-10a10 10 0 0 1 10 10z" fill="#ff3051"/><path d="m61 47h-4a9.991 9.991 0 0 0 -6-9.16v-.84a10 10 0 0 1 10 10z" fill="#cd2a00"/><path d="m47 51h10a10 10 0 0 1 -20 0c0-.23.01-.46.02-.68a10.01 10.01 0 0 1 9.98-9.32z" fill="#5eac24"/><path d="m38 23h4v16h-4z" fill="#2488ff"/><path d="m30 25h4v14h-4z" fill="#ffcd00"/><path d="m22 29h4v10h-4z" fill="#ff3051"/><path d="m40 23h2v16h-2z" fill="#005ece"/><path d="m32 25h2v14h-2z" fill="#ddb200"/><path d="m24 29h2v10h-2z" fill="#cd2a00"/><path d="m25 14c0 .11 0 .23-.01.34a10.921 10.921 0 0 1 -1.46 5.16l-5.2-3a4.919 4.919 0 0 0 .67-2.5z" fill="#ffb655"/><path d="m24.99 49.66c.01.11.01.23.01.34h-7a26.849 26.849 0 0 0 -.55-5.56 10.873 10.873 0 0 0 4.1-2.44 10.934 10.934 0 0 1 3.44 7.66z" fill="#2488ff"/><path d="m25 14h-6a4.919 4.919 0 0 0 -.67-2.5l5.2-3a10.922 10.922 0 0 1 1.47 5.5z" fill="#ff9811"/><path d="m18 50h7a10.925 10.925 0 0 1 -3.45 8 10.873 10.873 0 0 0 -4.1-2.44 26.849 26.849 0 0 0 .55-5.56z" fill="#57a4ff"/><path d="m23.53 8.5-5.2 3a5.018 5.018 0 0 0 -1.83-1.83l3-5.2a10.971 10.971 0 0 1 4.03 4.03z" fill="#ff5023"/><path d="m18.33 16.5 5.2 3a10.971 10.971 0 0 1 -4.03 4.03l-3-5.2a5.018 5.018 0 0 0 1.83-1.83z" fill="#ffcd00"/><path d="m16.5 18.33 3 5.2a10.921 10.921 0 0 1 -5.16 1.46c-.11.01-.23.01-.34.01v-6a4.919 4.919 0 0 0 2.5-.67z" fill="#ffde55"/><path d="m19.5 4.47-3 5.2a4.919 4.919 0 0 0 -2.5-.67v-6a10.922 10.922 0 0 1 5.5 1.47z" fill="#ff3051"/><path d="m21.55 42a10.873 10.873 0 0 1 -4.1 2.44c-.69-3.26-1.98-5.44-3.45-5.44.11 0 .23 0 .34.01a10.911 10.911 0 0 1 7.21 2.99z" fill="#57a4ff"/><path d="m17.45 55.56a10.873 10.873 0 0 1 4.1 2.44 10.967 10.967 0 0 1 -7.55 3c1.47 0 2.76-2.18 3.45-5.44z" fill="#2488ff"/><path d="m18.33 11.5a5 5 0 0 1 0 5 5.018 5.018 0 0 1 -1.83 1.83 5 5 0 0 1 -5 0 5.018 5.018 0 0 1 -1.83-1.83 5 5 0 0 1 0-5 5.018 5.018 0 0 1 1.83-1.83 5 5 0 0 1 5 0 5.018 5.018 0 0 1 1.83 1.83z" fill="#fee9ab"/><path d="m18 50h-8a26.849 26.849 0 0 1 .55-5.56 10.907 10.907 0 0 0 6.9 0 26.849 26.849 0 0 1 .55 5.56z" fill="#57a4ff"/><path d="m10 50h8a26.849 26.849 0 0 1 -.55 5.56 10.907 10.907 0 0 0 -6.9 0 26.849 26.849 0 0 1 -.55-5.56z" fill="#2488ff"/><path d="m14 39c1.47 0 2.76 2.18 3.45 5.44a10.907 10.907 0 0 1 -6.9 0c.69-3.26 1.98-5.44 3.45-5.44z" fill="#2488ff"/><path d="m17.45 55.56c-.69 3.26-1.98 5.44-3.45 5.44s-2.76-2.18-3.45-5.44a10.907 10.907 0 0 1 6.9 0z" fill="#57a4ff"/><path d="m14 19v6a10.922 10.922 0 0 1 -5.5-1.47l3-5.2a4.919 4.919 0 0 0 2.5.67z" fill="#5eac24"/><path d="m14 3v6a4.919 4.919 0 0 0 -2.5.67l-3-5.2a10.922 10.922 0 0 1 5.5-1.47z" fill="#bdfdff"/><path d="m8.5 4.47 3 5.2a5.018 5.018 0 0 0 -1.83 1.83l-5.2-3a10.971 10.971 0 0 1 4.03-4.03z" fill="#46f8ff"/><path d="m11.5 18.33-3 5.2a10.971 10.971 0 0 1 -4.03-4.03l5.2-3a5.018 5.018 0 0 0 1.83 1.83z" fill="#b2fa09"/><path d="m14 39c-1.47 0-2.76 2.18-3.45 5.44a10.873 10.873 0 0 1 -4.1-2.44 10.967 10.967 0 0 1 7.55-3z" fill="#57a4ff"/><path d="m10.55 55.56c.69 3.26 1.98 5.44 3.45 5.44a10.967 10.967 0 0 1 -7.55-3 10.873 10.873 0 0 1 4.1-2.44z" fill="#2488ff"/><path d="m6.45 42a10.873 10.873 0 0 0 4.1 2.44 26.849 26.849 0 0 0 -.55 5.56h-7a10.925 10.925 0 0 1 3.45-8z" fill="#2488ff"/><path d="m10.55 55.56a10.873 10.873 0 0 0 -4.1 2.44 10.925 10.925 0 0 1 -3.45-8h7a26.849 26.849 0 0 0 .55 5.56z" fill="#57a4ff"/><path d="m4.47 8.5 5.2 3a4.919 4.919 0 0 0 -.67 2.5h-6a10.922 10.922 0 0 1 1.47-5.5z" fill="#57a4ff"/><path d="m9.67 16.5-5.2 3a10.922 10.922 0 0 1 -1.47-5.5h6a4.919 4.919 0 0 0 .67 2.5z" fill="#2488ff"/><path d="m62 13v-10a1 1 0 0 0 -1-1h-10v2h7.59l-13.2 13.19a19.913 19.913 0 0 0 -13.39-5.19 19.68 19.68 0 0 0 -6.05.96 12 12 0 1 0 -12.99 12.99 19.544 19.544 0 0 0 0 12.1 12 12 0 1 0 12.99 12.99 19.68 19.68 0 0 0 6.05.96 19.963 19.963 0 0 0 4.03-.41 10.993 10.993 0 0 0 21.97-.59 1 1 0 0 0 -1-1h-9v-6.03a20.463 20.463 0 0 0 2-3.27v6.3a1 1 0 0 0 1 1h10a1 1 0 0 0 1-1 11 11 0 0 0 -10.42-10.97 19.8 19.8 0 0 0 -4.77-17.42l13.19-13.2v7.59zm-10 25.06a8.994 8.994 0 0 1 7.94 7.94h-7.94zm-28.89-28.16a9.748 9.748 0 0 1 .84 3.1h-4.04a5.641 5.641 0 0 0 -.29-1.09zm-5.29 8.72a6.047 6.047 0 0 0 .8-.8l3.49 2.01a10.274 10.274 0 0 1 -2.28 2.28zm.28 4.49a9.748 9.748 0 0 1 -3.1.84v-4.04a5.641 5.641 0 0 0 1.09-.29zm1.52-7.02a5.641 5.641 0 0 0 .29-1.09h4.04a9.748 9.748 0 0 1 -.84 3.1zm2.49-7.92-3.49 2.01a6.047 6.047 0 0 0 -.8-.8l2.01-3.49a10.274 10.274 0 0 1 2.28 2.28zm-7.11-4.12a9.748 9.748 0 0 1 3.1.84l-2.01 3.49a5.641 5.641 0 0 0 -1.09-.29zm3 9.95a4 4 0 1 1 -4-4 4 4 0 0 1 4 4zm-5-9.95v4.04a5.641 5.641 0 0 0 -1.09.29l-2.01-3.49a9.748 9.748 0 0 1 3.1-.84zm-4.83 1.84 2.01 3.49a6.047 6.047 0 0 0 -.8.8l-3.49-2.01a10.274 10.274 0 0 1 2.28-2.28zm-3.28 4.01 3.49 2.01a5.641 5.641 0 0 0 -.29 1.09h-4.04a9.748 9.748 0 0 1 .84-3.1zm0 8.2a9.748 9.748 0 0 1 -.84-3.1h4.04a5.641 5.641 0 0 0 .29 1.09zm1 1.73 3.49-2.01a6.047 6.047 0 0 0 .8.8l-2.01 3.49a10.274 10.274 0 0 1 -2.28-2.28zm4.01 3.28 2.01-3.49a5.641 5.641 0 0 0 1.09.29v4.04a9.748 9.748 0 0 1 -3.1-.84zm4.1 16.89c.7 0 1.61 1.38 2.24 3.74a10.468 10.468 0 0 1 -2.24.26 10.468 10.468 0 0 1 -2.24-.26c.63-2.36 1.54-3.74 2.24-3.74zm-7.48 3.38a11.736 11.736 0 0 0 2.89 1.7 27.541 27.541 0 0 0 -.39 3.92h-4.97a9.955 9.955 0 0 1 2.47-5.62zm-2.47 7.62h4.97a27.541 27.541 0 0 0 .39 3.92 11.736 11.736 0 0 0 -2.89 1.7 9.955 9.955 0 0 1 -2.47-5.62zm3.97 6.99a9.668 9.668 0 0 1 1.83-1.08 13.146 13.146 0 0 0 .97 2.56 9.636 9.636 0 0 1 -2.8-1.48zm1.83-14.9a9.668 9.668 0 0 1 -1.83-1.08 9.636 9.636 0 0 1 2.8-1.48 13.146 13.146 0 0 0 -.97 2.56zm4.15 16.91c-.7 0-1.61-1.38-2.24-3.74a10.468 10.468 0 0 1 2.24-.26 10.468 10.468 0 0 1 2.24.26c-.63 2.36-1.54 3.74-2.24 3.74zm2.66-5.69a11.567 11.567 0 0 0 -5.32 0 24.783 24.783 0 0 1 -.32-3.31h5.96a24.783 24.783 0 0 1 -.32 3.31zm-5.64-5.31a24.783 24.783 0 0 1 .32-3.31 11.567 11.567 0 0 0 5.32 0 24.783 24.783 0 0 1 .32 3.31zm6.16 10.47a13.146 13.146 0 0 0 .97-2.56 9.668 9.668 0 0 1 1.83 1.08 9.636 9.636 0 0 1 -2.8 1.48zm0-18.94a9.636 9.636 0 0 1 2.8 1.48 9.668 9.668 0 0 1 -1.83 1.08 13.146 13.146 0 0 0 -.97-2.56zm4.3 16.09a11.736 11.736 0 0 0 -2.89-1.7 27.541 27.541 0 0 0 .39-3.92h4.97a9.955 9.955 0 0 1 -2.47 5.62zm-2.5-7.62a27.541 27.541 0 0 0 -.39-3.92 11.736 11.736 0 0 0 2.89-1.7 9.955 9.955 0 0 1 2.47 5.62zm36.96 3a9 9 0 1 1 -9.94-9.94v8.94a1 1 0 0 0 1 1zm-5.94-20a17.719 17.719 0 0 1 -2.14 8.52 1 1 0 0 0 -.86-.52 11.018 11.018 0 0 0 -10.89 9.51 18.1 18.1 0 0 1 -10.16-.57 12.031 12.031 0 0 0 -10.88-10.89 17.639 17.639 0 0 1 0-12.1 12.039 12.039 0 0 0 10.88-10.88 17.946 17.946 0 0 1 24.05 16.93z"/><path d="m26 28h-4a1 1 0 0 0 -1 1v10a1 1 0 0 0 1 1h4a1 1 0 0 0 1-1v-10a1 1 0 0 0 -1-1zm-1 10h-2v-8h2z"/><path d="m34 24h-4a1 1 0 0 0 -1 1v14a1 1 0 0 0 1 1h4a1 1 0 0 0 1-1v-14a1 1 0 0 0 -1-1zm-1 14h-2v-12h2z"/><path d="m42 22h-4a1 1 0 0 0 -1 1v16a1 1 0 0 0 1 1h4a1 1 0 0 0 1-1v-16a1 1 0 0 0 -1-1zm-1 16h-2v-14h2z"/></g></svg>