<svg height="512" viewBox="0 0 512 512" width="512" xmlns="http://www.w3.org/2000/svg"><g id="flat"><rect fill="#04957c" height="336" rx="24" width="464" x="24" y="48"/><path d="m255.067 109.262a24 24 0 0 0 -24 24v16a23.937 23.937 0 0 0 8 17.884v29.985h32v-29.985a23.934 23.934 0 0 0 8-17.884v-16a24 24 0 0 0 -24-24z" fill="#fdc9a6"/><path d="m231.067 133.131-.13 13 14.421-13h33.709l10.472-10.472a22.06 22.06 0 0 0 2.049-28.834 22.06 22.06 0 0 0 -29.888-5.119l-6.637 4.425h-16.4a18.333 18.333 0 0 0 -12.963 5.369 18.338 18.338 0 0 0 -2.291 23.137z" fill="#683b0d"/><path d="m360 208-16 48-26.032-39.048a34 34 0 0 0 -16-12.841l-30.9-11.98-31.068-.131-41.619 11.891a34 34 0 0 0 -21.07 17.487l-22.144 44.288a30 30 0 0 0 -3.167 13.416v1.5a30 30 0 0 0 22.724 29.1l41.276 10.318v24h80v-80l22.042 22.042a34 34 0 0 0 24.041 9.958h2.1a34 34 0 0 0 31.953-22.381l23.864-65.619zm-144 80-24-8 24-40z" fill="#2cbff4"/><path d="m368 136v16a16 16 0 0 0 16 16 16 16 0 0 0 16-16v-16z" fill="#cbcbcb"/><path d="m216 304v-64l40 8 40-8v64l-40 8z" fill="#d32b39"/><path d="m368 208-8-24 16-16h16l8 16-8 24z" fill="#fdc9a6"/><path d="m368 136-9.383-14.074a26.972 26.972 0 0 1 -3.724-21.5 26.968 26.968 0 0 1 26.162-20.426h5.89a26.968 26.968 0 0 1 26.162 20.427 26.972 26.972 0 0 1 -3.724 21.5l-9.383 14.073z" fill="#fbb540"/><path d="m158 440h196a14 14 0 0 1 14 14v18a0 0 0 0 1 0 0h-224a0 0 0 0 1 0 0v-18a14 14 0 0 1 14-14z" fill="#cbcbcb"/><path d="m328 384h-40a32 32 0 0 1 -64 0h-40l-24 56h192z" fill="#a8a8a8"/><path d="m488 344h-464v16a24 24 0 0 0 24 24h416a24 24 0 0 0 24-24z" fill="#cbcbcb"/><path d="m216 288h32v32h-32z" fill="#fdc9a6"/><g fill="#656666"><path d="m228.28 400h-51.14l6.86-16h40a31.885 31.885 0 0 0 4.28 16z"/><path d="m334.86 400h-51.14a31.885 31.885 0 0 0 4.28-16h40z"/></g></g></svg>