<svg id="Layer_1" enable-background="new 0 0 512 512" height="512" viewBox="0 0 512 512" width="512" xmlns="http://www.w3.org/2000/svg"><g><g><g><path d="m504.495 71.147v323.63c0 7.26-5.89 13.15-13.16 13.15h-470.677c-7.27 0-13.16-5.89-13.16-13.15v-323.63c0-7.26 5.89-13.15 13.16-13.15h470.677c7.27 0 13.16 5.89 13.16 13.15z" fill="#55d7ff"/><path d="m504.495 71.147v323.63c0 7.26-5.89 13.15-13.16 13.15h-470.677c-7.27 0-13.16-5.89-13.16-13.15v-16.85h438.257c14.7 0 26.62-11.91 26.62-26.61v-293.32h18.96c7.27 0 13.16 5.89 13.16 13.15z" fill="#57bbff"/><path d="m504.495 71.147v46.84h-496.997v-46.84c0-7.26 5.89-13.15 13.16-13.15h470.677c7.27 0 13.16 5.89 13.16 13.15z" fill="#466175"/><path d="m504.495 347.937v46.84c0 7.26-5.89 13.15-13.16 13.15h-470.677c-7.27 0-13.16-5.89-13.16-13.15v-46.84z" fill="#466175"/><path d="m320.876 469.003h-129.759l10.18-31.29 9.7-29.79h89.999z" fill="#aec9d6"/><path d="m320.876 469.003h-129.759l10.18-31.29h63.57c11.43 0 19.65-10.97 16.43-21.93l-2.3-7.86h22z" fill="#8fb2bc"/><path d="m360.996 472.553c0 6.32-5.13 11.45-11.46 11.45h-187.079c-3.16 0-6.03-1.28-8.1-3.36-2.08-2.07-3.36-4.93-3.36-8.09 0-1.26.13-2.48.37-3.67 1.69-8.48 9.19-14.87 18.17-14.87h172.919c5.12 0 9.76 2.07 13.11 5.43s5.43 7.99 5.43 13.11z" fill="#466175"/><g fill="#2d4859"><path d="m355.566 459.443c3.35 3.36 5.43 7.99 5.43 13.11 0 6.32-5.13 11.45-11.46 11.45h-187.079c-3.16 0-6.03-1.28-8.1-3.36-2.08-2.07-3.36-4.93-3.36-8.09 0-1.26.13-2.48.37-3.67h175.669c6.33 0 11.46-5.13 11.46-11.45 0-1.17-.11-2.31-.32-3.42h4.28c5.12 0 9.76 2.07 13.11 5.43z"/><path d="m504.495 71.147v46.84h-32.12v-59.99h18.96c7.27 0 13.16 5.89 13.16 13.15z"/><path d="m472.375 347.937h32.12v46.84c0 7.26-5.89 13.15-13.16 13.15h-470.677c-7.27 0-13.16-5.89-13.16-13.15v-16.85h438.257c14.7 0 26.62-11.91 26.62-26.61z"/></g></g><g><path d="m355.999 57.993c0 8.29-3.36 15.79-8.79 21.21-5.43 5.43-12.93 8.79-21.21 8.79h-139.999c-16.57 0-30-13.43-30-30 0-8.29 3.36-15.79 8.79-21.21 5.43-5.43 12.93-8.79 21.21-8.79h139.999c16.57 0 30 13.43 30 30z" fill="#aec9d6"/><path d="m355.999 57.993c0 8.29-3.36 15.79-8.79 21.21-5.43 5.43-12.93 8.79-21.21 8.79h-139.999c-16.57 0-30-13.43-30-30h139.999c8.28 0 15.78-3.36 21.21-8.79 5.43-5.42 8.79-12.92 8.79-21.21 16.57 0 30 13.43 30 30z" fill="#8fb2bc"/><ellipse cx="256" cy="57.993" fill="#e6fdff" rx="30" ry="30" transform="matrix(.05 -.999 .999 .05 185.297 310.778)"/><path d="m226 57.993h60c0 16.57-13.43 30-30 30s-30-13.43-30-30z" fill="#c1eaf4"/></g></g><path d="m371.4 347.935h-228.8c1.33-6.34 4.1-12.18 8-17.12 5.73-7.28 13.89-12.62 23.39-14.77l62.93-12.8 41.16.24 57.81 11.73 4.11.83c15.949 3.61 28.12 16.19 31.4 31.89z" fill="#fff683"/><path d="m371.4 347.935h-228.8c1.33-6.34 4.1-12.18 8-17.12h167.08c11.89 0 17.27-6.11 18.21-15.6l4.11.83c15.949 3.61 28.12 16.19 31.4 31.89z" fill="#ffe45c"/><path d="m277.185 279.715c-.932 8.182-.691 15.762.894 23.77l.075.378c-1.182 1.33-2.412 2.672-3.689 4.027-4.74 5.051-10.669 7.802-16.78 7.786-6.119.015-12.054-2.741-16.799-7.802-1.35-1.432-2.648-2.85-3.892-4.255 1.634-8.094 1.99-15.637 1.046-23.918z" fill="#ffc7b6"/><path d="m306.419 237.955c0 11.65-9.9 25.57-29.44 41.38-3.14 2.56-6.74 4.45-10.58 5.58-2.84.86-5.81 1.29-8.81 1.29-7.07.01-13.93-2.42-19.41-6.88-19.53-15.8-29.43-29.72-29.43-41.37 0-1.23.05-2.47.15-3.66.38-3.84.54-19.97.48-37.38-.08-23.25 16.33-42.69 38.21-47.31 3.22-.68 6.57-1.04 10-1.04h.01c26.67.01 48.29 21.67 48.2 48.35-.06 17.4.1 33.52.47 37.35.111 1.22.15 2.46.15 3.69z" fill="#ffdecc"/><path d="m306.419 237.955c0 11.65-9.9 25.57-29.44 41.38-3.14 2.56-6.74 4.45-10.58 5.58 13.3-16.05 20.02-37.36 20.02-46.96 0-1.23-.04-2.47-.15-3.69-.37-3.83-.53-19.95-.47-37.35.08-23.25-16.33-42.69-38.21-47.31 3.22-.68 6.57-1.04 10-1.04h.01c26.67.01 48.29 21.67 48.2 48.35-.06 17.4.1 33.52.47 37.35.111 1.22.15 2.46.15 3.69z" fill="#ffc7b6"/></g><g><path d="m491.344 50.493h-128.598c-3.484-17.096-18.636-30-36.745-30h-140c-18.11 0-33.261 12.904-36.746 30h-128.598c-11.39 0-20.657 9.266-20.657 20.654v323.625c0 11.389 9.267 20.654 20.657 20.654h180.014l-10.118 31.086h-21.009c-14.36 0-26.044 11.682-26.044 26.041 0 10.451 8.503 18.954 18.955 18.954h187.089c10.452 0 18.956-8.502 18.956-18.954 0-14.359-11.684-26.041-26.045-26.041h-21.009l-10.118-31.086h180.015c11.39 0 20.656-9.266 20.656-20.654v-323.625c.001-11.388-9.266-20.654-20.655-20.654zm-142.844 7.5c0 12.407-10.094 22.5-22.5 22.5h-40.02c4.719-6.272 7.52-14.064 7.52-22.5s-2.801-16.228-7.52-22.5h40.02c12.407 0 22.5 10.093 22.5 22.5zm-115 0c0-12.407 10.094-22.5 22.5-22.5s22.5 10.093 22.5 22.5-10.094 22.5-22.5 22.5-22.5-10.093-22.5-22.5zm-47.499-22.5h40.02c-4.719 6.272-7.52 14.064-7.52 22.5s2.801 16.228 7.52 22.5h-40.02c-12.406 0-22.5-10.093-22.5-22.5s10.093-22.5 22.5-22.5zm119.671 411.02h-48.758c-4.143 0-7.5 3.358-7.5 7.5s3.357 7.5 7.5 7.5h85.541c6.09 0 11.045 4.953 11.045 11.041 0 2.18-1.774 3.954-3.956 3.954h-187.088c-2.181 0-3.955-1.773-3.955-3.954 0-6.088 4.954-11.041 11.044-11.041h52.76c4.143 0 7.5-3.358 7.5-7.5s-3.357-7.5-7.5-7.5h-15.976l10.118-31.086h79.108zm185.672-46.086h-190.344-90-190.343c-3.119 0-5.657-2.537-5.657-5.654v-39.334h390.743c4.143 0 7.5-3.358 7.5-7.5s-3.357-7.5-7.5-7.5h-28.661c-5.478-15.807-18.834-27.954-35.428-31.708-.054-.012-.108-.024-.163-.035l-56.857-11.534c-.607-4.64-.725-9.254-.345-14.126 19.928-16.665 29.634-31.432 29.634-45.075 0-1.493-.061-2.95-.188-4.423-.32-3.268-.5-18.318-.438-36.6.051-14.898-5.716-28.918-16.236-39.477-10.53-10.568-24.546-16.39-39.465-16.392-.003 0-.006 0-.009 0-14.919 0-28.936 5.819-39.468 16.386-10.525 10.559-16.294 24.582-16.243 39.484.063 18.295-.118 33.357-.446 36.709-.119 1.367-.18 2.818-.18 4.312 0 13.625 9.677 28.366 29.529 44.985.369 4.766.235 9.277-.401 13.973l-57.879 11.774c-.054.011-.107.022-.161.035-16.592 3.757-29.945 15.906-35.419 31.712h-121.919v-214.957h101.673c4.143 0 7.5-3.358 7.5-7.5s-3.357-7.5-7.5-7.5h-101.673v-39.335c0-3.118 2.538-5.654 5.657-5.654h128.598c3.484 17.096 18.636 30 36.746 30h140c18.11 0 33.261-12.904 36.745-30h128.598c3.119 0 5.656 2.537 5.656 5.654v39.334h-345.999c-4.143 0-7.5 3.358-7.5 7.5s3.357 7.5 7.5 7.5h345.999v214.956h-56.75c-4.143 0-7.5 3.358-7.5 7.5s3.357 7.5 7.5 7.5h56.75v39.334c0 3.119-2.537 5.656-5.656 5.656zm-274.468-203.54c-.037-10.886 4.177-21.129 11.866-28.843 7.698-7.723 17.941-11.975 28.845-11.975h.007c10.902.002 21.146 4.256 28.842 11.98 7.686 7.713 11.898 17.955 11.861 28.837-.053 15.378.054 33.466.501 38.025.082.958.124 1.984.124 3.05 0 9.014-9.467 21.638-26.67 35.558-4.113 3.344-9.295 5.185-14.628 5.185-.016 0-.032 0-.048 0-.015 0-.029 0-.044 0-5.311 0-10.502-1.845-14.638-5.21-17.183-13.901-26.645-26.52-26.645-35.533 0-1.061.041-2.073.115-2.928.458-4.655.565-22.757.512-38.146zm53.169 104.289c-.371.4-.746.802-1.124 1.203-3.28 3.495-7.276 5.418-11.297 5.418-.021 0-.043 0-.065 0-3.988 0-7.993-1.928-11.293-5.447-.442-.469-.88-.939-1.313-1.408.485-3.058.789-6.065.93-9.073 3.74 1.201 7.662 1.833 11.621 1.833h.15c3.916 0 7.791-.614 11.486-1.781.125 3.094.419 6.161.905 9.255zm-35.808 10.263c.367.396.73.793 1.102 1.186 6.152 6.561 14.04 10.171 22.18 10.171h.146c8.169 0 16.049-3.604 22.182-10.14.306-.324.605-.651.908-.977l57.668 11.699c9.688 2.215 17.777 8.557 22.34 17.06h-207.527c4.561-8.505 12.649-14.848 22.338-17.065z"/></g></svg>