<?xml version="1.0"?>
<svg xmlns="http://www.w3.org/2000/svg" xmlns:xlink="http://www.w3.org/1999/xlink" version="1.1" id="Capa_1" x="0px" y="0px" viewBox="0 0 512 512" style="enable-background:new 0 0 512 512;" xml:space="preserve" width="512px" height="512px" class=""><g><g>
	<g>
		<path d="M436.46,299.599V147.11c0-6.364-5.178-11.543-11.543-11.543h-20.355c-6.364,0-11.543,5.178-11.543,11.543v152.483h-12.817    V190.445c0-6.364-5.178-11.543-11.543-11.543h-20.355c-6.364,0-11.543,5.178-11.543,11.543v109.148h-12.815v-30.155    c0-6.364-5.178-11.543-11.543-11.543h-20.357c-6.364,0-11.543,5.178-11.543,11.543v30.155H267.69v-71.853    c0-6.364-5.178-11.542-11.543-11.542h-20.356c-6.363,0-11.542,5.178-11.542,11.543v71.853h-0.646c-4.143,0-7.5,3.358-7.5,7.5    c0,4.142,3.357,7.5,7.5,7.5h212.73c4.143,0,7.5-3.358,7.5-7.5C443.834,302.994,440.544,299.668,436.46,299.599z M252.689,299.592    H239.25v-68.394h13.439V299.592z M308.945,299.592h-13.439v-26.697h13.439V299.592z M365.201,299.592h-13.439V193.903h13.439    V299.592z M421.458,299.592H408.02V150.568h13.439V299.592z" data-original="#000000" class="active-path" data-old_color="#000000" fill="#F4CD00"/>
	</g>
</g><g>
	<g>
		<path d="M494.343,39.733H333.947c-4.143,0-7.5,3.358-7.5,7.5c0,4.142,3.357,7.5,7.5,7.5h160.397c1.439,0,2.655,1.216,2.655,2.655    v16.858c0,1.439-1.216,2.655-2.655,2.655c-4.9,0-356.701,0-361.258,0c-1.439,0-2.655-1.216-2.655-2.655V57.389    c0-1.439,1.216-2.655,2.655-2.655h165.86c4.143,0,7.5-3.358,7.5-7.5c0-4.142-3.357-7.5-7.5-7.5h-165.86    c-9.736,0-17.656,7.92-17.656,17.656v16.858c0,9.562,7.644,17.353,17.14,17.63v25.803c-38.923,3.109-69.652,35.755-69.652,75.466    v22.19c-4.007,4.73-6.175,10.497-6.175,16.603c0,13.577,10.11,25.277,24.268,26.86c2.269,14.251,9.99,27.941,22.23,37.186v14.098    l-70.554,27.353c-0.047,0.018-0.094,0.037-0.141,0.056C31.216,338.039,0,351.291,0,387.699v70.577    c0,7.714,6.275,13.99,13.99,13.99c10.531,0,239.152,0,250.657,0c7.683,0,13.934-6.25,13.934-13.934v-61.389h200.316    c8.804,0,15.965-7.161,15.965-15.964V242.581c0-4.142-3.357-7.5-7.5-7.5c-4.143,0-7.5,3.358-7.5,7.5V380.98    c0,0.531-0.433,0.963-0.964,0.963H278.312c-1.964-20.994-16.792-38.447-32.419-44.507l-70.631-27.354V295.07    c10.846-8.656,18.789-21.437,21.068-36.253c13.817-1.566,24.225-13.054,24.225-26.877c0-6.123-2.108-12.255-6.178-17.17v-21.624    c0-38.712-29.145-70.795-66.808-75.191V91.904H479.86v115.675c0,4.142,3.357,7.5,7.5,7.5s7.5-3.358,7.5-7.5V91.878    C504.357,91.601,512,83.809,512,74.247V57.389C512,47.654,504.08,39.733,494.343,39.733z M80.296,243.405    c-5.17-1.586-8.555-6.217-8.555-11.465c0-5.095,3.808-9.232,8.555-11.017V243.405z M108.363,324.201l20.043,24.741    c-8.651,6.144-17.463,12.405-18.395,13.067l-16.076-32.22L108.363,324.201z M139.269,338.474l-21.029-25.959v-8.436    c12.702,4.551,28.142,5.073,42.021-0.35v8.835L139.269,338.474z M149.233,366.701l-3.306,4.976h-13.313l-3.307-4.976l9.963-7.075    L149.233,366.701z M107.77,457.266H62.48V398.63c0-4.142-3.357-7.5-7.5-7.5s-7.5,3.358-7.5,7.5v58.636H15.001V387.7    c0-25.88,21.814-35.714,23.206-36.315l41.677-16.157l18.271,36.617c3.275,6.561,11.662,8.701,17.683,4.424l1.234-0.876l3.63,5.464    L107.77,457.266z M122.983,457.266l11.947-70.587h8.682l11.947,70.587H122.983z M240.376,351.386    c6.646,2.872,14.711,9.761,19.083,18.427c3.468,6.868,4.12,12.753,4.12,19.63v67.822h-32.475V398.63c0-4.142-3.357-7.5-7.5-7.5    s-7.5,3.358-7.5,7.5v58.636h-45.331l-12.933-76.41l3.63-5.463l1.235,0.877c6.005,4.265,14.397,2.157,17.682-4.424l18.27-36.615    L240.376,351.386z M184.606,329.788l-16.076,32.219c0,0-18.389-13.062-18.42-13.084l20.039-24.734l3.215,1.245L184.606,329.788z     M181.999,250.038c-0.067,23.232-18.856,42.608-42.691,42.608c-27.205-0.034-44.012-21.366-44.012-42.623    c0-4.662,0-33.173,0-37.738c24.531,1.077,50.915-5.941,73.084-19.83c7.36,7.896,11.87,12.612,13.618,14.651    C181.999,207.374,181.999,250.038,181.999,250.038z M197,243.384V220.49C208.38,223.997,208.389,239.88,197,243.384z     M199.376,193.146v12.437c-0.785-0.177-1.582-0.315-2.387-0.425c0-4.955-2.408-6.563-19.248-24.663l-0.001-0.001    c-4.039-4.34-10.575-5.138-15.536-1.894c-20.104,13.134-45.155,20.252-68.858,18.548c-5.466-0.41-10.585,2.954-12.386,8.161    c-1.023,0.155-2.04,0.364-3.044,0.628v-12.789c0-33.116,26.954-61.27,61.998-60.696    C172.697,133.124,199.376,160.348,199.376,193.146z" data-original="#000000" class="active-path" data-old_color="#000000" fill="#F4CD00"/>
	</g>
</g></g> </svg>
