<svg id="Capa_1" enable-background="new 0 0 512.002 512.002" height="512" viewBox="0 0 512.002 512.002" width="512" xmlns="http://www.w3.org/2000/svg"><g><g><g><path d="m415.05 38.964c-6.553 0-345.437 0-347.337 0-18.092 0-32.811 14.719-32.811 32.811v246.11c0 16.001 11.858 29.869 27.638 32.397l5.909 4.718h340.765l11.009-4.718c15.78-2.528 27.638-16.396 27.638-32.397 0-8.189 0-238.703 0-246.11 0-18.092-14.719-32.811-32.811-32.811z" fill="#3f6d8e"/><path d="m66.202 317.885v-246.11c0-18.092 14.719-32.811 32.811-32.811-19.106 0-30.949 0-31.3 0-18.092 0-32.811 14.719-32.811 32.811v246.11c0 16.001 11.858 29.869 27.638 32.397l5.909 4.718h31.3l-5.909-4.718c-15.78-2.528-27.638-16.396-27.638-32.397z" fill="#365e7d"/><path d="m414.391 96.916h-344.059l-5.954 6.215v212.054c0 3.251 2.636 5.887 5.887 5.887h342.234c3.251 0 5.886-2.636 5.886-5.887 0-5.559 0-205.62 0-212.054z" fill="#e4f6ff"/><path d="m102.644 315.185v-212.053l5.954-6.215h-38.266l-5.954 6.215v212.054c0 3.251 2.636 5.887 5.887 5.887h38.266c-3.251 0-5.887-2.637-5.887-5.888z" fill="#d3effb"/><path d="m102.644 68.219h-32.38c-3.251 0-5.887 2.636-5.887 5.887v29.026h38.266l2.517-2.685v-30.359z" fill="#dd636e"/><path d="m412.498 68.219c-15.202 0-297.806 0-309.854 0v34.913h315.74v-29.026c0-3.251-2.635-5.887-5.886-5.887z" fill="#b1e4f9"/><path d="m469.827 350.282h-456.891c-3.026 0-5.478 2.477-5.478 5.532v19.028c0 14.118 11.439 25.669 25.421 25.669h417.005c13.981 0 25.421-11.551 25.421-25.669v-19.028c0-3.055-2.453-5.532-5.478-5.532z" fill="#407093"/><path d="m64.378 374.841v-19.028c0-3.055 2.453-5.532 5.478-5.532h-56.92c-3.026 0-5.478 2.477-5.478 5.532v19.028c0 14.118 11.439 25.669 25.421 25.669h56.921c-13.982 0-25.422-11.551-25.422-25.669z" fill="#365e7d"/></g><path d="m499.25 418.857v-195.333l5.209-4.929c0-12.331 0-20.375 0-21.945 0-11.269-9.135-20.404-20.405-20.404h-125.232c-11.269 0-20.404 9.135-20.404 20.404v21.945l5.833 5.263v196.836l-5.833 3.611v28.995c0 11.269 9.135 20.404 20.404 20.404h125.233c11.269 0 20.405-9.135 20.405-20.404 0-1.852 0-12.712 0-28.995z" fill="#365e7d"/><path d="m368.501 453.298v-28.995l5.833-3.611v-196.835l-5.833-5.263v-21.944c0-11.269 9.135-20.404 20.404-20.404h-30.083c-11.269 0-20.404 9.135-20.404 20.404v21.945l5.833 5.263v196.836l-5.833 3.611v28.995c0 11.269 9.135 20.404 20.404 20.404h30.083c-11.268-.001-20.404-9.137-20.404-20.406z" fill="#294b64"/><circle cx="236.381" cy="212.102" fill="#dd636e" r="62.717"/><path d="m197.664 212.102c0-30.532 21.822-55.956 50.717-61.557-3.885-.753-7.895-1.16-12-1.16-34.638 0-62.717 28.079-62.717 62.717s28.079 62.717 62.717 62.717c4.105 0 8.115-.407 12-1.16-28.895-5.6-50.717-31.025-50.717-61.557z" fill="#da4a54"/><path d="m261.903 205.607-32.184-21.946c-5.219-3.558-12.291.179-12.291 6.495v43.891c0 6.316 7.072 10.053 12.291 6.495l32.184-21.946c4.576-3.119 4.576-9.868 0-12.989z" fill="#e4f6ff"/><path d="m241.428 191.646-11.709-7.984c-5.219-3.558-12.291.179-12.291 6.495v43.891c0 6.316 7.072 10.053 12.291 6.495l11.709-7.984z" fill="#d3effb"/><path d="m338.418 247.19h166.042v177.113h-166.042z" fill="#90d8f9"/><path d="m338.418 247.19h30.081v177.114h-30.081z" fill="#75cef9"/><g><path d="m429.41 454.926h-15.943c-4.142 0-7.5-3.358-7.5-7.5s3.358-7.5 7.5-7.5h15.943c4.142 0 7.5 3.358 7.5 7.5s-3.358 7.5-7.5 7.5z" fill="#365e7d"/></g><circle cx="421.439" cy="335.458" fill="#dd636e" r="54.585"/><path d="m387.478 335.458c0-26.62 19.059-48.776 44.273-53.599-3.341-.639-6.785-.986-10.312-.986-30.147 0-54.585 24.439-54.585 54.585s24.438 54.585 54.585 54.585c3.527 0 6.972-.347 10.312-.986-25.214-4.823-44.273-26.979-44.273-53.599z" fill="#da4a54"/><path d="m338.418 218.594h30.583v30.018h-30.583z" fill="#dd636e"/><path d="m368.499 218.594v30.018h135.961v-30.018c-16.527 0-119.245 0-135.961 0z" fill="#b1e4f9"/><path d="m443.651 329.805-28.011-19.1c-4.542-3.097-10.697.156-10.697 5.653v38.2c0 5.497 6.155 8.75 10.697 5.653l28.011-19.1c3.983-2.716 3.983-8.59 0-11.306z" fill="#e4f6ff"/><path d="m425.568 317.475-9.928-6.77c-4.542-3.097-10.697.156-10.697 5.653v38.2c0 5.497 6.155 8.75 10.697 5.653l9.928-6.77z" fill="#d3effb"/></g><g><path d="m484.098 168.413h-28.693v-96.97c0-22.228-18.084-40.311-40.312-40.311h-347.337c-22.228 0-40.311 18.083-40.311 40.311v246.11c0 9.259 3.264 17.963 8.747 24.897h-23.213c-7.157-.001-12.979 5.846-12.979 13.031v19.028c0 18.29 14.769 33.169 32.922 33.169h186.003c4.143 0 7.5-3.358 7.5-7.5s-3.357-7.5-7.5-7.5h-186.003c-9.882 0-17.922-8.15-17.922-18.169v-17.06h315.961v35.229h-77.036c-4.143 0-7.5 3.358-7.5 7.5s3.357 7.5 7.5 7.5h77.036v45.288c0 15.387 12.518 27.905 27.904 27.905h125.232c15.387 0 27.904-12.518 27.904-27.905 0-11.462 0-248.448 0-256.648.001-15.387-12.517-27.905-27.903-27.905zm-153.137 174.036h-267.741c-11.882-2.179-20.774-12.784-20.774-24.897v-246.109c0-13.957 11.354-25.311 25.311-25.311h347.337c13.957 0 25.312 11.354 25.312 25.311v96.971h-14.477c0-10.489 0-83.129 0-94.64 0-7.381-6.005-13.387-13.386-13.387-2.043 0-331.807 0-342.234 0-7.382 0-13.387 6.005-13.387 13.387v241.08c0 7.381 6.005 13.387 13.387 13.387h260.653v14.208zm79.967-267.063v19.913h-300.74v-19.913zm-315.74 0v19.913h-23.267v-19.913zm235.773 120.931v116.923h-259.04v-202.941h339.007v58.114h-52.062c-15.387 0-27.905 12.518-27.905 27.904zm15 29.445h15.081v15.018h-15.081zm151.041 227.204c0 7.116-5.789 12.905-12.904 12.905h-125.233c-7.115 0-12.904-5.789-12.904-12.905v-21.495h151.041zm0-36.495h-151.041c0-61.225 0-99.53 0-160.691h151.041zm0-175.691h-120.96v-15.018h120.96zm0-30.018c-7.655 0-144.215 0-151.041 0v-14.445c0-7.115 5.789-12.904 12.904-12.904h125.232c7.115 0 12.904 5.789 12.904 12.904v14.445z"/><path d="m413.51 454.593h15.943c4.143 0 7.5-3.358 7.5-7.5s-3.357-7.5-7.5-7.5h-15.943c-4.143 0-7.5 3.358-7.5 7.5s3.357 7.5 7.5 7.5z"/><path d="m266.171 199.078-32.184-21.945c-10.185-6.946-24.017.362-24.017 12.691v43.891c0 12.326 13.827 19.638 24.017 12.691l32.184-21.945c8.936-6.093 8.934-19.292 0-25.383zm-8.451 12.99-32.184 21.946c-.097.065-.18.123-.373.021-.192-.102-.192-.203-.192-.32v-43.891c0-.117 0-.218.192-.32.076-.04.135-.056.185-.056.076 0 .13.037.188.077l32.184 21.945c.067.046.158.108.158.299 0 .192-.091.254-.158.299z"/><path d="m236.425 141.552c-38.718 0-70.218 31.5-70.218 70.217s31.5 70.217 70.218 70.217 70.217-31.499 70.217-70.217-31.499-70.217-70.217-70.217zm0 125.435c-30.447 0-55.218-24.77-55.218-55.217s24.771-55.217 55.218-55.217c30.446 0 55.217 24.771 55.217 55.217s-24.771 55.217-55.217 55.217z"/><path d="m419.907 304.176c-9.527-6.496-22.422.367-22.422 11.85v38.2c0 11.577 12.974 18.292 22.423 11.849l28.01-19.1c8.344-5.688 8.342-18.011.001-23.699zm-7.422 48.805v-35.711l26.186 17.856z"/><path d="m421.481 397.211c26.099 0 49.576-16.494 58.42-41.043 1.404-3.897-.616-8.194-4.514-9.598-3.896-1.402-8.194.617-9.598 4.514-6.708 18.618-24.515 31.127-44.309 31.127-25.963 0-47.085-21.123-47.085-47.085s21.122-47.085 47.085-47.085c20.626 0 38.666 13.202 44.892 32.851 1.25 3.949 5.468 6.136 9.414 4.885 3.949-1.251 6.136-5.466 4.885-9.415-8.208-25.911-31.995-43.32-59.19-43.32-34.233 0-62.085 27.852-62.085 62.085s27.852 62.084 62.085 62.084z"/></g></g></svg>